<svg xmlns="http://www.w3.org/2000/svg" width="601" height="601" viewBox="0 0 601 601" version="1.1">
	<path d="M 110.005 3.084 C 73.557 11.304, 43.576 31.969, 22.678 63.276 C 13.468 77.074, 6.940 92.764, 3.028 110.500 C 1.089 119.292, 1.043 123.673, 1.031 300 L 1.018 480.500 3.454 491.239 C 14.215 538.675, 49.951 577.952, 96.059 593.019 C 100.922 594.608, 109.671 596.829, 115.501 597.954 C 125.929 599.967, 128.930 600, 300 600 C 471.070 600, 474.071 599.967, 484.499 597.954 C 524.112 590.310, 556.226 568.855, 577.925 535.536 C 587.780 520.404, 594.165 504.135, 597.954 484.499 C 599.967 474.071, 600 471.070, 600 300 C 600 128.340, 599.973 125.964, 597.933 115.390 C 594.016 95.095, 587.457 78.577, 577.221 63.232 C 556.184 31.694, 526.212 11.123, 489.500 3.028 C 480.701 1.088, 476.464 1.045, 299.500 1.106 C 124.902 1.166, 118.200 1.236, 110.005 3.084 M 284 122.038 C 254.893 124.324, 230.920 130.297, 206 141.473 C 157.406 163.266, 120.063 202.117, 104.951 246.601 C 98.589 265.328, 97.500 272.474, 97.500 295.500 C 97.500 318.196, 98.763 326.717, 104.687 344 C 113.128 368.629, 132.941 398.553, 150.750 413.572 C 154.882 417.056, 155 417.323, 155 423.174 C 155 434.994, 149.319 448.407, 140.533 457.335 C 134.369 463.598, 123.651 469.430, 115.587 470.908 C 112.335 471.504, 109.493 472.173, 109.272 472.394 C 108.694 472.973, 117.140 475.629, 127 477.969 C 139.776 481.001, 160.138 480.819, 173.500 477.554 C 188.678 473.844, 204.178 466.689, 214.358 458.692 L 218.215 455.661 225.358 457.845 C 253.295 466.386, 275.517 470, 300.090 470 C 348.262 470, 392.570 456.156, 431.257 429.016 C 443.132 420.685, 464.564 399.245, 473.256 387 C 481.111 375.936, 491.528 355.808, 495.282 344.441 C 501.385 325.965, 502.502 318.264, 502.453 295 C 502.412 275.003, 502.218 272.734, 499.677 262.544 C 498.174 256.519, 495.802 248.420, 494.405 244.548 C 474.296 188.802, 422.481 144.958, 357.338 128.567 C 335.436 123.056, 305.253 120.369, 284 122.038 M 284 152.492 C 248.298 158.621, 219.161 185.469, 209.867 220.802 C 205.665 236.775, 206.379 258.149, 211.615 273.137 C 215.358 283.849, 218.638 289.658, 236.500 317.204 C 239.250 321.445, 245.100 330.565, 249.500 337.470 C 253.900 344.375, 260.293 354.384, 263.708 359.711 C 270.278 369.964, 270.421 371.181, 265.209 372.478 C 256.995 374.524, 243.234 385.864, 238.786 394.253 C 236.937 397.740, 236.531 400.110, 236.517 407.500 C 236.496 418.501, 238.497 423.103, 246.885 431.349 C 274.581 458.577, 339.665 454.794, 359.031 424.830 C 367.762 411.322, 365.124 394.712, 352.401 383.083 C 347.682 378.770, 334.032 371, 331.175 371 C 330.529 371, 330 370.733, 330 370.407 C 330 369.766, 338.660 355.984, 353.504 333 C 358.655 325.025, 364.558 315.800, 366.621 312.500 C 368.685 309.200, 372.704 302.900, 375.552 298.500 C 387.326 280.310, 391.896 267.132, 392.720 249 C 393.992 221.023, 384.997 197.666, 365.254 177.674 C 344.959 157.123, 313.613 147.409, 284 152.492 M 289.205 213.834 C 279.787 217.194, 271.411 226.069, 268.903 235.343 C 265.995 246.094, 269.714 259.593, 277.664 267.144 C 284.650 273.780, 289.237 275.494, 300 275.494 C 307.985 275.494, 310.185 275.129, 313.795 273.204 C 320.412 269.675, 325.667 264.379, 328.720 258.161 C 331.098 253.319, 331.500 251.271, 331.500 244 C 331.500 233.979, 329.161 228.109, 322.526 221.474 C 313.945 212.893, 300.488 209.807, 289.205 213.834 M 266.341 382.431 C 254.985 387.761, 247.478 395.778, 245.573 404.612 C 242.873 417.132, 257.378 431.389, 278.700 437.172 C 288.949 439.952, 309.219 440.213, 319.319 437.696 C 334.349 433.950, 347.684 425.460, 352.084 416.835 C 356.434 408.309, 353.639 397.414, 345.166 389.865 C 341.096 386.238, 327.805 379, 325.215 379 C 324.712 379, 319.668 386.239, 314.006 395.087 C 303.117 412.105, 300.498 414.665, 297.112 411.601 C 296.069 410.657, 290.779 402.937, 285.358 394.445 C 279.936 385.953, 275.050 379.020, 274.500 379.038 C 273.950 379.057, 270.278 380.584, 266.341 382.431" stroke="none" fill="black" fill-rule="evenodd"/>
</svg>